# xmcd
#
# Track frame offsets: 
#        150
#        18174
#        41095
#        56667
#        75207
#        93945
#        116066
#        133648
#        143539
#        159175
#        179717
#        194423
#        211761
#        229914
#        242698
#
# Disc length: 3476 seconds
#
# Revision: 1
# Processed by: cddbd v1.5.2PL0 Copyright (c) Steve Scherf et al.
# Submitted via: ExactAudioCopy v0.95b4
#
DISCID=bf0d920f
DTITLE=Leo Green - Sax Moods - The Way We Were
DYEAR=2003
DGENRE=Jazz
TTITLE0=Stranger On The Shore
TTITLE1=You've Got A Friend
TTITLE2=The Way We Were
TTITLE3=She
TTITLE4=Con Te Partirò (Time To Say Goodbye)
TTITLE5=Lately
TTITLE6=If Tomorrow Never Comes
TTITLE7=Fly Me To The Moon
TTITLE8=Love's Theme
TTITLE9=Cloud 9
TTITLE10=Albatross
TTITLE11=Ballad Medley
TTITLE12=It Could Happen To You
TTITLE13=Le Signe (The Swan)
TTITLE14=Stranger On The Shore (Reprise)
EXTD=YEAR: 2003
EXTT0=
EXTT1=
EXTT2=
EXTT3=
EXTT4=
EXTT5=
EXTT6=
EXTT7=
EXTT8=
EXTT9=
EXTT10=
EXTT11=
EXTT12=
EXTT13=
EXTT14=
PLAYORDER=
